HIERARCHY
ROOT joint_Root
{
	OFFSET 0.0 0.0 0.0
	CHANNELS 6 Xposition Yposition Zposition Zrotation Xrotation Yrotation 
	JOINT Hips
	{
		OFFSET -0.726466 93.3139 -2.00062
		CHANNELS 6 Xposition Yposition Zposition Zrotation Xrotation Yrotation 
		JOINT Spine
		{
			OFFSET 15.7357 0.0 0.0
			CHANNELS 6 Xposition Yposition Zposition Zrotation Xrotation Yrotation 
			JOINT Chest
			{
				OFFSET 8.98455 -0.406207 0.0
				CHANNELS 6 Xposition Yposition Zposition Zrotation Xrotation Yrotation 
				JOINT Neck
				{
					OFFSET 16.3773 0.0 0.0
					CHANNELS 6 Xposition Yposition Zposition Zrotation Xrotation Yrotation 
					JOINT Head
					{
						OFFSET 6.45672 0.0 0.0
						CHANNELS 6 Xposition Yposition Zposition Zrotation Xrotation Yrotation 
						End Site
						{
							OFFSET 0.0 0.0 0.0
						}
					}
				}
				JOINT Shoulder_L
				{
					OFFSET 12.9942 -0.242716 4.98039
					CHANNELS 6 Xposition Yposition Zposition Zrotation Xrotation Yrotation 
					JOINT UpperArm_L
					{
						OFFSET 5.34809 0.0 0.0
						CHANNELS 6 Xposition Yposition Zposition Zrotation Xrotation Yrotation 
						JOINT LowerArm_L
						{
							OFFSET 24.3286 1.87007e-05 0.0
							CHANNELS 6 Xposition Yposition Zposition Zrotation Xrotation Yrotation 
							JOINT Hand_L
							{
								OFFSET 22.2916 0.0 0.0
								CHANNELS 6 Xposition Yposition Zposition Zrotation Xrotation Yrotation 
								End Site
								{
									OFFSET 0.0 0.0 0.0
								}
							}
						}
					}
				}
				JOINT Shoulder_R
				{
					OFFSET 12.9945 -0.242716 -4.98039
					CHANNELS 6 Xposition Yposition Zposition Zrotation Xrotation Yrotation 
					JOINT UpperArm_R
					{
						OFFSET -5.34813 0.0 0.0
						CHANNELS 6 Xposition Yposition Zposition Zrotation Xrotation Yrotation 
						JOINT LowerArm_R
						{
							OFFSET -24.3289 0.000322201 0.0
							CHANNELS 6 Xposition Yposition Zposition Zrotation Xrotation Yrotation 
							JOINT Hand_R
							{
								OFFSET -22.2915 -0.000108084 0.0
								CHANNELS 6 Xposition Yposition Zposition Zrotation Xrotation Yrotation 
								End Site
								{
									OFFSET 0.0 0.0 0.0
								}
							}
						}
					}
				}
			}
		}
		JOINT UpperLeg_L
		{
			OFFSET -2.19248 -6.46944 0.0
			CHANNELS 6 Xposition Yposition Zposition Zrotation Xrotation Yrotation 
			JOINT LowerLeg_L
			{
				OFFSET 39.0811 0.0 -1.23785e-05
				CHANNELS 6 Xposition Yposition Zposition Zrotation Xrotation Yrotation 
				JOINT Foot_L
				{
					OFFSET 40.9854 0.0 -1.26872e-05
					CHANNELS 6 Xposition Yposition Zposition Zrotation Xrotation Yrotation 
					JOINT Toes_L
					{
						OFFSET 11.7543 0.0 0.0
						CHANNELS 6 Xposition Yposition Zposition Zrotation Xrotation Yrotation 
						End Site
						{
							OFFSET 0.0 0.0 0.0
						}
					}
				}
			}
		}
		JOINT UpperLeg_R
		{
			OFFSET -2.19251 6.46944 0.0
			CHANNELS 6 Xposition Yposition Zposition Zrotation Xrotation Yrotation 
			JOINT LowerLeg_R
			{
				OFFSET -39.0811 -0.00228153 -0.0401928
				CHANNELS 6 Xposition Yposition Zposition Zrotation Xrotation Yrotation 
				JOINT Foot_R
				{
					OFFSET -40.9854 0.0 0.0
					CHANNELS 6 Xposition Yposition Zposition Zrotation Xrotation Yrotation 
					JOINT Toes_R
					{
						OFFSET -11.7543 0.0 0.0
						CHANNELS 6 Xposition Yposition Zposition Zrotation Xrotation Yrotation 
						End Site
						{
							OFFSET 0.0 0.0 0.0
						}
					}
				}
			}
		}
	}
}
MOTION
Frames:	6
Frame Time:	0.0333333
0.000000 0.000000 0.000000 0.000000 0.000000 -0.000000 -6.628970 90.557300 103.703000 -87.988200 10.234400 171.168000 15.735700 0.000005 -0.000001 138.177000 82.024000 -139.048000 8.984550 -0.406207 -0.000000 3.020460 11.911900 -2.060170 16.377300 -0.000001 -0.000001 -2.029320 -1.439960 1.814160 6.456720 -0.000001 -0.000000 2.178550 -8.096880 -2.522730 12.994200 -0.242716 4.980390 -86.185600 -8.116660 -64.721300 5.348090 -0.000007 -0.000001 -73.391400 23.902000 25.493800 24.328600 0.000019 0.000005 9.680750 0.935830 -84.531100 22.291600 -0.000001 0.000005 -14.456400 5.492230 -6.214050 12.994500 -0.242716 -4.980390 89.192700 2.940400 -74.640000 -5.348130 -0.000001 -0.000004 -59.518600 34.648100 -23.184100 -24.328900 0.000322 -0.000009 -3.485170 1.022410 -106.298000 -22.291500 -0.000108 -0.000004 7.784190 5.536910 -8.105720 -2.192480 -6.469440 -0.000000 -176.609000 -0.174970 -31.076000 39.081100 -0.000007 -0.000012 -0.011295 0.063644 10.063100 40.985400 -0.000006 -0.000013 -3.204660 -4.501700 -67.983500 11.754300 -0.000000 0.000003 -0.008792 -0.094392 -20.421400 -2.192510 6.469440 -0.000001 176.590000 0.256956 -168.416000 -39.081100 -0.002282 -0.040193 0.136537 -0.107753 51.048300 -40.985400 0.000008 0.000006 -0.464522 -3.622620 -32.711700 -11.754300 -0.000006 -0.000006 -0.019547 -0.164768 -23.304000
0.000000 0.000000 0.000000 0.000000 0.000000 -0.000000 -6.747670 88.963400 92.386600 -90.265000 7.864140 170.794000 15.735700 0.000005 -0.000001 127.859000 82.793100 -129.760000 8.984550 -0.406207 -0.000000 3.803280 8.900090 -4.099300 16.377300 -0.000001 -0.000001 -3.049980 -1.242540 2.415540 6.456720 -0.000001 -0.000000 -0.274554 -6.721040 -1.668080 12.994200 -0.242716 4.980390 -86.961700 -6.449130 -64.708100 5.348090 -0.000007 -0.000001 -73.721200 20.165900 19.503400 24.328600 0.000019 0.000005 9.446830 0.863724 -84.824000 22.291600 -0.000001 0.000005 -11.824400 5.529300 -7.742760 12.994500 -0.242716 -4.980390 89.030100 3.461040 -74.336600 -5.348130 -0.000001 -0.000004 -62.104000 36.412100 -17.175500 -24.328900 0.000322 -0.000009 -1.506460 0.163553 -96.064200 -22.291500 -0.000108 -0.000004 9.423670 5.529900 -7.790900 -2.192480 -6.469440 -0.000000 174.612000 -7.156950 -39.812600 39.081100 -0.000007 -0.000012 0.216405 -0.456923 25.343200 40.985400 -0.000006 -0.000013 3.818470 -4.599290 -63.622300 11.754300 -0.000000 0.000003 -0.013776 -0.129980 -21.878200 -2.192510 6.469440 -0.000001 175.448000 2.560000 -176.564000 -39.081100 -0.002282 -0.040193 0.236095 -0.072375 72.745600 -40.985400 0.000008 0.000006 0.821998 -3.910680 -34.494500 -11.754300 -0.000006 -0.000006 -0.018755 -0.160296 -23.119900
0.000000 0.000000 0.000000 0.000000 0.000000 -0.000000 -7.097190 86.049600 81.190000 -93.123700 4.122270 172.251000 15.735700 0.000005 -0.000001 109.698000 83.103900 -112.383000 8.984550 -0.406207 -0.000000 5.349180 4.695240 -5.586300 16.377300 -0.000001 -0.000001 -3.644290 -1.919840 2.822960 6.456720 -0.000001 -0.000000 -1.763710 -4.773520 -1.552160 12.994200 -0.242716 4.980390 -88.458200 -3.536060 -66.443100 5.348090 -0.000007 -0.000001 -72.829000 18.111300 13.355700 24.328600 0.000019 0.000005 6.780660 0.285651 -87.613500 22.291600 -0.000001 0.000005 -9.928200 5.548960 -8.650130 12.994500 -0.242716 -4.980390 88.613200 4.609600 -73.240300 -5.348130 -0.000001 -0.000004 -63.904400 36.895500 -10.379100 -24.328900 0.000322 -0.000009 0.821873 0.080014 -84.735000 -22.291500 -0.000108 -0.000004 8.189770 5.543250 -8.406890 -2.192480 -6.469440 -0.000000 170.300000 -8.475820 -42.996300 39.081100 -0.000007 -0.000012 0.111874 -0.118139 43.439100 40.985400 -0.000006 -0.000013 5.821900 -1.896490 -59.678300 11.754300 -0.000000 0.000003 -0.007657 -0.085222 -20.046800 -2.192510 6.469440 -0.000001 172.980000 7.133470 174.725000 -39.081100 -0.002282 -0.040193 0.381776 0.032925 94.985100 -40.985400 0.000008 0.000006 1.138300 -7.687100 -34.223300 -11.754300 -0.000006 -0.000006 -0.020056 -0.167599 -23.420600
0.000000 0.000000 0.000000 0.000000 0.000000 -0.000000 -7.655690 83.554700 69.656700 -94.998800 1.334120 176.277000 15.735700 0.000005 -0.000001 97.645400 81.688800 -100.759000 8.984550 -0.406207 -0.000000 8.780330 2.172700 -6.389950 16.377300 -0.000001 -0.000001 -4.125800 -3.454630 2.656510 6.456720 -0.000001 -0.000000 -2.539030 -3.821190 -0.593552 12.994200 -0.242716 4.980390 -90.016600 0.044040 -69.056300 5.348090 -0.000007 -0.000001 -69.793100 19.391800 1.590640 24.328600 0.000019 0.000005 4.922260 0.051535 -89.402200 22.291600 -0.000001 0.000005 -9.219140 5.564370 -9.400800 12.994500 -0.242716 -4.980390 87.794800 6.649250 -71.605900 -5.348130 -0.000001 -0.000004 -66.057700 33.315900 -2.637810 -24.328900 0.000322 -0.000009 3.058200 1.114300 -70.123800 -22.291500 -0.000108 -0.000004 8.517770 5.582120 -10.260800 -2.192480 -6.469440 -0.000000 169.792000 -5.608490 -36.526500 39.081100 -0.000007 -0.000012 -0.491716 0.326338 56.430000 40.985400 -0.000006 -0.000013 4.636340 -3.999950 -74.492600 11.754300 -0.000000 0.000003 -0.000004 -0.000059 -16.579800 -2.192510 6.469440 -0.000001 171.435000 9.376690 166.955000 -39.081100 -0.002282 -0.040193 0.225979 0.093057 112.702000 -40.985400 0.000008 0.000006 4.872670 -8.770540 -33.875800 -11.754300 -0.000006 -0.000006 -0.019544 -0.164751 -23.303400
0.000000 0.000000 0.000000 0.000000 0.000000 -0.000000 -8.247740 82.294000 58.670200 -93.604500 1.342190 176.165000 15.735700 0.000005 -0.000001 95.112200 81.781600 -97.681600 8.984550 -0.406207 -0.000000 8.645010 1.437690 -5.242930 16.377300 -0.000001 -0.000001 -3.422780 -3.319350 2.535910 6.456720 -0.000001 -0.000000 -1.906490 -3.570290 -0.071574 12.994200 -0.242716 4.980390 -90.350300 0.938597 -69.539300 5.348090 -0.000007 -0.000001 -66.912500 23.616800 -14.083400 24.328600 0.000019 0.000005 8.908970 0.013760 -89.899600 22.291600 -0.000001 0.000005 -9.863700 5.585940 -10.537200 12.994500 -0.242716 -4.980390 87.728600 6.614900 -71.000300 -5.348130 -0.000001 -0.000004 -68.511500 28.525100 5.622680 -24.328900 0.000322 -0.000009 4.141530 2.490820 -59.032700 -22.291500 -0.000108 -0.000004 10.469600 5.606580 -11.766500 -2.192480 -6.469440 -0.000000 171.413000 -6.734480 -29.350200 39.081100 -0.000007 -0.000012 -0.855257 0.494310 59.975900 40.985400 -0.000006 -0.000013 4.203580 -4.238360 -85.324100 11.754300 -0.000000 0.000003 -0.000027 -0.000326 -16.590300 -2.192510 6.469440 -0.000001 175.058000 8.545630 152.353000 -39.081100 -0.002282 -0.040193 -0.277669 -0.191131 124.210000 -40.985400 0.000008 0.000006 10.118000 -10.238500 -35.738200 -11.754300 -0.000006 -0.000006 -0.019396 -0.163920 -23.269100
0.000000 0.000000 0.000000 0.000000 0.000000 -0.000000 -8.173670 82.702000 47.029300 -90.370500 -0.546069 174.925000 15.735700 0.000005 -0.000001 86.544200 82.435100 -87.603700 8.984550 -0.406207 -0.000000 7.329410 -0.904582 -2.058740 16.377300 -0.000001 -0.000001 -2.907300 -3.199530 1.946500 6.456720 -0.000001 -0.000000 0.030357 -1.706020 -0.344287 12.994200 -0.242716 4.980390 -89.318500 -1.989410 -71.066700 5.348090 -0.000007 -0.000001 -68.548400 25.063300 -22.931600 24.328600 0.000019 0.000005 9.773040 -0.928096 -95.414600 22.291600 -0.000001 0.000005 -10.121600 5.575400 -9.991280 12.994500 -0.242716 -4.980390 87.815400 5.811740 -69.356000 -5.348130 -0.000001 -0.000004 -67.797300 28.816600 13.211900 -24.328900 0.000322 -0.000009 1.642710 0.918043 -60.880700 -22.291500 -0.000108 -0.000004 6.428980 5.619670 -12.599400 -2.192480 -6.469440 -0.000000 175.048000 -6.253720 -18.661100 39.081100 -0.000007 -0.000012 0.193577 -0.136299 54.849800 40.985400 -0.000006 -0.000013 8.548640 -5.923960 -90.630000 11.754300 -0.000000 0.000003 -0.281538 -0.354261 -17.614600 -2.192510 6.469440 -0.000001 -178.309000 8.857790 140.541000 -39.081100 -0.002282 -0.040193 -0.564198 -0.403902 125.432000 -40.985400 0.000008 0.000006 12.117600 -15.863000 -42.066100 -11.754300 -0.000006 -0.000006 -0.018317 -0.157782 -23.016500
